<mxfile host="app.diagrams.net" modified="2023-09-20T17:34:23.348Z" agent="Mozilla/5.0 (Windows NT 10.0; Win64; x64) AppleWebKit/537.36 (KHTML, like Gecko) Chrome/112.0.0.0 Safari/537.36" etag="yNyr-optByVrCLfxOPYw" version="21.7.2" type="github" pages="2">
  <diagram name="Página-1" id="8endudXUXBj42HU9XCR_">
    <mxGraphModel dx="2228" dy="2491" grid="1" gridSize="10" guides="1" tooltips="1" connect="1" arrows="1" fold="1" page="1" pageScale="1" pageWidth="827" pageHeight="1169" math="0" shadow="0">
      <root>
        <mxCell id="0" />
        <mxCell id="1" parent="0" />
        <mxCell id="ZT4pz9n2tWRO5B6b2syC-11" value="" style="rounded=1;whiteSpace=wrap;html=1;fillColor=#fff2cc;strokeColor=#d6b656;fillStyle=hatch;" vertex="1" parent="1">
          <mxGeometry x="100" y="640" width="1240" height="240" as="geometry" />
        </mxCell>
        <mxCell id="ZT4pz9n2tWRO5B6b2syC-9" value="" style="rounded=1;whiteSpace=wrap;html=1;fillColor=#d5e8d4;strokeColor=#82b366;fillStyle=hatch;" vertex="1" parent="1">
          <mxGeometry x="80" y="-60" width="1240" height="590" as="geometry" />
        </mxCell>
        <mxCell id="ZT4pz9n2tWRO5B6b2syC-7" value="Produccion" style="rounded=1;whiteSpace=wrap;html=1;labelPosition=left;verticalLabelPosition=top;align=right;verticalAlign=bottom;fillColor=#ffe6cc;strokeColor=#d79b00;" vertex="1" parent="1">
          <mxGeometry x="780" y="70" width="440" height="340" as="geometry" />
        </mxCell>
        <mxCell id="ZT4pz9n2tWRO5B6b2syC-6" value="TEST" style="rounded=1;whiteSpace=wrap;html=1;labelPosition=left;verticalLabelPosition=top;align=right;verticalAlign=bottom;fillColor=#fff2cc;strokeColor=#d6b656;" vertex="1" parent="1">
          <mxGeometry x="250" y="60" width="440" height="340" as="geometry" />
        </mxCell>
        <mxCell id="vuWEy_-lPGp5p0v1VGA5-1" value="F5" style="rounded=1;whiteSpace=wrap;html=1;fillColor=#e1d5e7;strokeColor=#9673a6;" parent="1" vertex="1">
          <mxGeometry x="340" y="200" width="120" height="60" as="geometry" />
        </mxCell>
        <mxCell id="vuWEy_-lPGp5p0v1VGA5-2" value="WS1" style="rounded=1;whiteSpace=wrap;html=1;" parent="1" vertex="1">
          <mxGeometry x="480" y="130" width="120" height="60" as="geometry" />
        </mxCell>
        <mxCell id="vuWEy_-lPGp5p0v1VGA5-3" value="WS2" style="rounded=1;whiteSpace=wrap;html=1;" parent="1" vertex="1">
          <mxGeometry x="480" y="280" width="120" height="60" as="geometry" />
        </mxCell>
        <mxCell id="ZT4pz9n2tWRO5B6b2syC-1" value="F5" style="rounded=1;whiteSpace=wrap;html=1;fillColor=#e1d5e7;strokeColor=#9673a6;" vertex="1" parent="1">
          <mxGeometry x="850" y="195" width="120" height="60" as="geometry" />
        </mxCell>
        <mxCell id="ZT4pz9n2tWRO5B6b2syC-2" value="WS1" style="rounded=1;whiteSpace=wrap;html=1;fillColor=#dae8fc;strokeColor=#6c8ebf;" vertex="1" parent="1">
          <mxGeometry x="990" y="125" width="120" height="60" as="geometry" />
        </mxCell>
        <mxCell id="ZT4pz9n2tWRO5B6b2syC-3" value="WS2" style="rounded=1;whiteSpace=wrap;html=1;fillColor=#dae8fc;strokeColor=#6c8ebf;" vertex="1" parent="1">
          <mxGeometry x="990" y="275" width="120" height="60" as="geometry" />
        </mxCell>
        <mxCell id="ZT4pz9n2tWRO5B6b2syC-4" value="WS1" style="rounded=1;whiteSpace=wrap;html=1;fillColor=#dae8fc;strokeColor=#6c8ebf;" vertex="1" parent="1">
          <mxGeometry x="480" y="130" width="120" height="60" as="geometry" />
        </mxCell>
        <mxCell id="ZT4pz9n2tWRO5B6b2syC-5" value="WS2" style="rounded=1;whiteSpace=wrap;html=1;fillColor=#dae8fc;strokeColor=#6c8ebf;" vertex="1" parent="1">
          <mxGeometry x="480" y="280" width="120" height="60" as="geometry" />
        </mxCell>
        <mxCell id="ZT4pz9n2tWRO5B6b2syC-8" value="WS1 Test" style="rounded=1;whiteSpace=wrap;html=1;fillColor=#dae8fc;strokeColor=#6c8ebf;" vertex="1" parent="1">
          <mxGeometry x="390" y="710" width="120" height="60" as="geometry" />
        </mxCell>
        <mxCell id="ZT4pz9n2tWRO5B6b2syC-10" value="WS1 Produccion" style="rounded=1;whiteSpace=wrap;html=1;fillColor=#dae8fc;strokeColor=#6c8ebf;" vertex="1" parent="1">
          <mxGeometry x="970" y="700" width="120" height="60" as="geometry" />
        </mxCell>
      </root>
    </mxGraphModel>
  </diagram>
  <diagram id="AXQdI3NXp2dMAG9rKdcL" name="Página-2">
    <mxGraphModel dx="2345" dy="735" grid="1" gridSize="10" guides="1" tooltips="1" connect="1" arrows="1" fold="1" page="1" pageScale="1" pageWidth="827" pageHeight="1169" math="0" shadow="0">
      <root>
        <mxCell id="0" />
        <mxCell id="1" parent="0" />
        <mxCell id="vjsjTl3rcswdeukX4PXc-7" value="Master Page&amp;nbsp;" style="rounded=1;whiteSpace=wrap;html=1;labelPosition=left;verticalLabelPosition=top;align=right;verticalAlign=bottom;fillColor=#ffe6cc;strokeColor=#d79b00;" vertex="1" parent="1">
          <mxGeometry x="30" y="70" width="750" height="380" as="geometry" />
        </mxCell>
        <mxCell id="vjsjTl3rcswdeukX4PXc-1" value="Principal" style="rounded=1;whiteSpace=wrap;html=1;labelPosition=left;verticalLabelPosition=top;align=right;verticalAlign=bottom;fillColor=#fff2cc;strokeColor=#d6b656;" vertex="1" parent="1">
          <mxGeometry x="99" y="120" width="630" height="290" as="geometry" />
        </mxCell>
        <mxCell id="vjsjTl3rcswdeukX4PXc-9" style="edgeStyle=orthogonalEdgeStyle;rounded=0;orthogonalLoop=1;jettySize=auto;html=1;entryX=1;entryY=0.5;entryDx=0;entryDy=0;" edge="1" parent="1" source="vjsjTl3rcswdeukX4PXc-2" target="vjsjTl3rcswdeukX4PXc-6">
          <mxGeometry relative="1" as="geometry">
            <Array as="points">
              <mxPoint x="413" y="480" />
              <mxPoint x="790" y="480" />
              <mxPoint x="790" y="652" />
            </Array>
          </mxGeometry>
        </mxCell>
        <mxCell id="vjsjTl3rcswdeukX4PXc-2" value="Iframe" style="rounded=1;whiteSpace=wrap;html=1;fillColor=#f8cecc;strokeColor=#b85450;" vertex="1" parent="1">
          <mxGeometry x="178" y="162.5" width="470" height="195" as="geometry" />
        </mxCell>
        <mxCell id="vjsjTl3rcswdeukX4PXc-10" style="edgeStyle=orthogonalEdgeStyle;rounded=0;orthogonalLoop=1;jettySize=auto;html=1;" edge="1" parent="1" source="vjsjTl3rcswdeukX4PXc-3" target="vjsjTl3rcswdeukX4PXc-2">
          <mxGeometry relative="1" as="geometry">
            <Array as="points">
              <mxPoint x="880" y="135" />
              <mxPoint x="880" y="260" />
            </Array>
          </mxGeometry>
        </mxCell>
        <mxCell id="vjsjTl3rcswdeukX4PXc-3" value="Page.Aspx" style="rounded=1;whiteSpace=wrap;html=1;fillColor=#d5e8d4;strokeColor=#82b366;" vertex="1" parent="1">
          <mxGeometry x="1010" y="90" width="190" height="90" as="geometry" />
        </mxCell>
        <mxCell id="vjsjTl3rcswdeukX4PXc-11" style="edgeStyle=orthogonalEdgeStyle;rounded=0;orthogonalLoop=1;jettySize=auto;html=1;entryX=1;entryY=0.75;entryDx=0;entryDy=0;" edge="1" parent="1" source="vjsjTl3rcswdeukX4PXc-4" target="vjsjTl3rcswdeukX4PXc-2">
          <mxGeometry relative="1" as="geometry">
            <Array as="points">
              <mxPoint x="920" y="255" />
              <mxPoint x="920" y="309" />
            </Array>
          </mxGeometry>
        </mxCell>
        <mxCell id="vjsjTl3rcswdeukX4PXc-4" value="Page.Aspx" style="rounded=1;whiteSpace=wrap;html=1;fillColor=#d5e8d4;strokeColor=#82b366;" vertex="1" parent="1">
          <mxGeometry x="1010" y="210" width="190" height="90" as="geometry" />
        </mxCell>
        <mxCell id="vjsjTl3rcswdeukX4PXc-6" value="Master Page Frame" style="rounded=1;whiteSpace=wrap;html=1;fillColor=#dae8fc;strokeColor=#6c8ebf;labelPosition=left;verticalLabelPosition=top;align=right;verticalAlign=bottom;" vertex="1" parent="1">
          <mxGeometry x="40" y="512" width="730" height="280" as="geometry" />
        </mxCell>
        <mxCell id="vjsjTl3rcswdeukX4PXc-8" value="Page.Aspx con Master Page" style="rounded=1;whiteSpace=wrap;html=1;fillColor=#d5e8d4;strokeColor=#82b366;" vertex="1" parent="1">
          <mxGeometry x="150" y="560" width="530" height="190" as="geometry" />
        </mxCell>
      </root>
    </mxGraphModel>
  </diagram>
</mxfile>
